<?xml version="1.0" encoding="utf-8"?>
<!-- Generator: Adobe Illustrator 23.0.5, SVG Export Plug-In . SVG Version: 6.00 Build 0)  -->
<svg version="1.1" id="Capa_1" xmlns="http://www.w3.org/2000/svg" xmlns:xlink="http://www.w3.org/1999/xlink" x="0px" y="0px"
	 viewBox="0 0 267 40" style="enable-background:new 0 0 267 40;" xml:space="preserve">
<style type="text/css">
	.st0{fill:#FFFFFF;}
</style>
<g>
	<path class="st0" d="M7.8,30.12c-0.09,0.02-0.2,0.03-0.31,0.03c-0.12,0-0.23,0-0.35,0c-0.79,0-1.54-0.14-2.25-0.42
		c-0.72-0.28-1.19-0.81-1.42-1.59c-0.07-0.21-0.1-0.44-0.1-0.69c0-0.62,0.2-1.19,0.59-1.7c0.09-0.09,0.18-0.16,0.26-0.19
		c0.08-0.03,0.12,0.02,0.12,0.16c0.07,1.13,0.47,1.94,1.19,2.44c0.73,0.5,1.59,0.74,2.58,0.74c0.95,0,1.92-0.2,2.93-0.59
		c1-0.39,1.9-0.92,2.68-1.59c1.02-0.9,1.96-1.94,2.82-3.12c0.87-1.18,1.69-2.37,2.48-3.57c0.28-0.46,0.57-0.92,0.87-1.38
		c0.3-0.46,0.6-0.91,0.9-1.35h-8.62c-0.05,0-0.07-0.02-0.07-0.07c0-0.12,0.09-0.26,0.26-0.43c0.17-0.17,0.32-0.26,0.43-0.26h8.48
		c1.02-1.5,2.07-2.97,3.15-4.41c1.08-1.44,2.18-2.76,3.29-3.96c1.36-1.43,2.79-2.58,4.28-3.44c1.49-0.87,2.83-1.33,4.03-1.4
		c0.65-0.05,1.23-0.02,1.75,0.09c0.52,0.1,0.94,0.29,1.26,0.57c0.3,0.23,0.52,0.52,0.66,0.87c0.14,0.35,0.21,0.7,0.21,1.07
		c0,0.09-0.01,0.18-0.02,0.28c-0.01,0.09-0.03,0.2-0.05,0.31c-0.07,0.37-0.21,0.67-0.42,0.9c-0.09,0.09-0.18,0.14-0.28,0.14
		c-0.16,0-0.17-0.1-0.03-0.31c0.21-0.28,0.31-0.61,0.31-1c0-0.21-0.03-0.39-0.1-0.55c-0.16-0.44-0.47-0.77-0.92-0.99
		c-0.45-0.22-0.98-0.33-1.58-0.33c-1.29,0-2.65,0.46-4.09,1.38c-1.04,0.67-2.09,1.56-3.17,2.68c-1.07,1.12-2.15,2.37-3.22,3.76
		c-1.07,1.38-2.14,2.84-3.2,4.36h5.09c0.21-0.42,0.42-0.83,0.64-1.25c0.22-0.42,0.44-0.83,0.68-1.25c0.85-1.55,1.74-3.03,2.65-4.45
		c0.91-1.42,1.73-2.71,2.44-3.86c0.07-0.12,0.14-0.17,0.21-0.17c0.09,0,0.15,0.05,0.17,0.14c0.02,0.09,0,0.17-0.07,0.24
		c-1.06,1.62-1.99,3.32-2.79,5.12c-0.8,1.8-1.52,3.62-2.16,5.47h1.7c0.05,0,0.07,0.02,0.07,0.07c0,0.09-0.09,0.23-0.26,0.42
		c-0.17,0.18-0.33,0.28-0.47,0.28h-1.32c-0.21,0.6-0.46,1.4-0.74,2.41c-0.29,1-0.54,2.05-0.76,3.13c-0.22,1.08-0.33,2.08-0.33,2.98
		c0,0.83,0.13,1.48,0.4,1.94c0.27,0.46,0.69,0.69,1.26,0.69c0.07,0,0.14,0,0.21,0c0.07,0,0.14-0.01,0.21-0.03
		c0.39-0.07,0.79-0.29,1.19-0.66c0.4-0.37,0.8-0.81,1.19-1.32c0.55-0.71,1.06-1.48,1.52-2.28c0.46-0.81,0.81-1.43,1.04-1.87
		c0.12-0.18,0.21-0.28,0.28-0.28c0.09,0,0.14,0.08,0.14,0.24c0,0.09-0.03,0.21-0.1,0.35c-0.32,0.58-0.73,1.3-1.23,2.16
		c-0.5,0.87-1.04,1.67-1.64,2.41c-0.44,0.51-0.9,0.95-1.38,1.32c-0.48,0.37-0.99,0.6-1.52,0.69c-0.14,0.02-0.27,0.04-0.4,0.05
		c-0.13,0.01-0.26,0.02-0.4,0.02c-0.67,0-1.26-0.19-1.77-0.57c-0.51-0.38-0.85-1.02-1.04-1.92c-0.05-0.25-0.08-0.52-0.1-0.8
		c-0.02-0.28-0.03-0.54-0.03-0.8c0-1.34,0.24-2.69,0.71-4.05c0.47-1.36,0.96-2.63,1.47-3.81h-5.33c-0.37,0.51-0.73,1.03-1.07,1.58
		c-0.35,0.54-0.7,1.08-1.07,1.61c-0.67,0.97-1.47,1.99-2.41,3.06c-0.93,1.07-1.96,2.09-3.06,3.05c-1.11,0.96-2.27,1.76-3.48,2.41
		C10.24,29.65,9.02,30.02,7.8,30.12z"/>
	<path class="st0" d="M36.67,27.87c-0.83,0-1.41-0.24-1.73-0.73c-0.32-0.48-0.48-1.1-0.48-1.83c0-0.76,0.12-1.59,0.36-2.49
		c0.24-0.9,0.53-1.78,0.87-2.63c0.33-0.85,0.66-1.6,0.97-2.25c0.31-0.65,0.52-1.1,0.64-1.35c0.42-0.88,0.93-1.87,1.54-2.98
		c0.61-1.11,1.3-2.24,2.08-3.39c0.77-1.15,1.59-2.25,2.46-3.29c0.87-1.04,1.77-1.94,2.7-2.7c0.93-0.76,1.86-1.28,2.79-1.56
		c0.25-0.07,0.48-0.1,0.69-0.1c0.39,0,0.72,0.11,0.99,0.33c0.26,0.22,0.4,0.59,0.4,1.12c0,0.37-0.09,0.83-0.28,1.38
		c-0.3,0.81-0.81,1.7-1.52,2.68c-0.72,0.98-1.56,2-2.53,3.05c-0.97,1.05-1.99,2.08-3.06,3.1c-1.07,1.02-2.12,1.96-3.13,2.84
		c-1.02,0.88-1.92,1.63-2.7,2.25c-0.21,0.44-0.4,0.87-0.57,1.28c-0.17,0.42-0.33,0.82-0.47,1.21c-0.07,0.21-0.17,0.52-0.31,0.93
		c-0.14,0.42-0.27,0.88-0.38,1.38c-0.12,0.51-0.17,0.99-0.17,1.45c0,0.46,0.09,0.86,0.28,1.19c0.18,0.33,0.52,0.5,1,0.5
		c0.39,0,0.76-0.13,1.09-0.38c0.33-0.25,0.64-0.53,0.92-0.83c0.97-1.11,1.83-2.39,2.6-3.84c0.09-0.16,0.16-0.24,0.21-0.24
		c0.05,0,0.07,0.07,0.07,0.21c0,0.21-0.05,0.43-0.14,0.66c-0.44,0.81-0.84,1.49-1.19,2.04c-0.36,0.55-0.87,1.17-1.54,1.83
		c-0.3,0.3-0.65,0.57-1.06,0.8C37.63,27.75,37.18,27.87,36.67,27.87z M38.09,18.52c0.71-0.62,1.55-1.37,2.49-2.23
		c0.95-0.87,1.92-1.79,2.91-2.79c0.99-0.99,1.93-1.98,2.82-2.98c0.89-0.99,1.66-1.93,2.32-2.8c0.66-0.88,1.1-1.64,1.33-2.28
		c0.21-0.6,0.31-1.06,0.31-1.38c0-0.6-0.27-0.9-0.8-0.9c-0.3,0-0.66,0.11-1.07,0.33c-0.42,0.22-0.8,0.5-1.14,0.85
		c-0.58,0.55-1.25,1.34-2.03,2.37c-0.77,1.03-1.59,2.2-2.44,3.51c-0.85,1.32-1.69,2.69-2.51,4.12
		C39.47,15.76,38.74,17.16,38.09,18.52z"/>
	<path class="st0" d="M54.57,27.87c-0.69,0-1.22-0.21-1.59-0.64c-0.37-0.43-0.55-0.96-0.55-1.61c0-0.71,0.18-1.44,0.55-2.16
		c0.37-0.73,0.79-1.44,1.26-2.13c0.47-0.69,0.89-1.35,1.26-1.97c0.37-0.62,0.55-1.18,0.55-1.66c0-0.18-0.05-0.35-0.14-0.5
		c-0.09-0.15-0.27-0.23-0.52-0.23c-0.74,0-1.51,0.34-2.3,1.02c-0.8,0.68-1.56,1.55-2.3,2.61c-0.74,1.06-1.4,2.17-1.99,3.32
		c-0.59,1.15-1.04,2.22-1.37,3.18c-0.37-0.09-0.62-0.24-0.74-0.43c-0.13-0.2-0.19-0.41-0.19-0.64c0-0.37,0.05-0.73,0.16-1.07
		c0.1-0.35,0.27-0.77,0.5-1.28c0.23-0.51,0.53-1.16,0.9-1.96c0.37-0.8,0.81-1.83,1.32-3.1c0.07-0.18,0.12-0.35,0.14-0.48
		c0.02-0.14,0.03-0.27,0.03-0.38c0-0.53-0.22-0.8-0.66-0.8c-0.55,0-1.12,0.23-1.7,0.67c-0.58,0.45-1.14,1.04-1.68,1.78
		c-0.54,0.74-1.06,1.53-1.54,2.39c-0.48,0.85-0.92,1.69-1.32,2.51c-0.39,0.82-0.72,1.53-0.97,2.13c-0.23,0.53-0.51,0.87-0.83,1.02
		c-0.32,0.15-0.64,0.23-0.93,0.23c-0.09,0-0.2-0.01-0.33-0.02c-0.13-0.01-0.25-0.02-0.36-0.02c0.46-0.92,0.95-1.93,1.47-3.03
		c0.52-1.1,1-2.2,1.44-3.31c0.44-1.11,0.8-2.17,1.07-3.18c0.28-1.02,0.42-1.89,0.42-2.63c0-0.09-0.01-0.16-0.02-0.21
		c-0.01-0.05-0.02-0.09-0.02-0.14c0-0.07,0.02-0.1,0.07-0.1c0.23,0,0.42,0.14,0.55,0.43c0.14,0.29,0.24,0.61,0.29,0.97
		c0.06,0.36,0.09,0.64,0.09,0.85c0,0.58-0.07,1.17-0.21,1.78c-0.14,0.61-0.3,1.12-0.48,1.54c0.88-1.18,1.78-2.18,2.72-3.01
		c0.93-0.83,1.86-1.25,2.79-1.25c0.62,0,1.07,0.13,1.35,0.38c0.28,0.25,0.42,0.61,0.42,1.07c0,0.32-0.05,0.65-0.16,0.97
		c-0.1,0.32-0.27,0.76-0.5,1.32c0.88-1.2,1.74-2.12,2.58-2.77c0.84-0.65,1.68-0.97,2.51-0.97c0.67,0,1.17,0.15,1.51,0.45
		c0.33,0.3,0.5,0.7,0.5,1.21c0,0.55-0.18,1.21-0.54,1.96c-0.36,0.75-0.77,1.52-1.23,2.32c-0.46,0.8-0.87,1.55-1.23,2.25
		c-0.36,0.7-0.54,1.29-0.54,1.75c0,0.25,0.06,0.48,0.17,0.69c0.12,0.21,0.32,0.31,0.62,0.31c0.39,0,0.77-0.13,1.13-0.4
		c0.36-0.26,0.66-0.55,0.92-0.85c0.53-0.58,1.02-1.22,1.47-1.92c0.45-0.7,0.89-1.45,1.33-2.23c0.07-0.09,0.12-0.14,0.14-0.14
		c0.09,0,0.14,0.1,0.14,0.31c0,0.14-0.02,0.24-0.07,0.31c-0.42,0.76-0.85,1.51-1.32,2.23c-0.46,0.73-1.03,1.43-1.7,2.09
		c-0.3,0.3-0.65,0.57-1.04,0.8C55.49,27.75,55.05,27.87,54.57,27.87z"/>
	<path class="st0" d="M60.56,27.87c-0.72,0-1.23-0.21-1.54-0.62c-0.31-0.42-0.47-0.92-0.47-1.52c0-0.76,0.16-1.59,0.47-2.49
		c0.31-0.9,0.68-1.76,1.09-2.58c0.42-0.82,0.75-1.46,1-1.92c0.51-0.85,1.02-1.38,1.54-1.59s1.16-0.31,1.92-0.31
		c-0.23,0.07-0.53,0.34-0.9,0.81c-0.37,0.47-0.76,1.06-1.16,1.75c-0.4,0.69-0.78,1.44-1.14,2.23c-0.36,0.8-0.65,1.57-0.87,2.32
		c-0.22,0.75-0.33,1.39-0.33,1.92c0,0.39,0.07,0.72,0.22,0.97c0.15,0.25,0.39,0.38,0.71,0.38c0.28,0,0.6-0.11,0.97-0.33
		c0.37-0.22,0.7-0.49,1-0.81c1.02-1.13,1.84-2.37,2.48-3.72c0.63-1.35,1.34-2.69,2.13-4.03c0.51-0.85,1.02-1.38,1.54-1.59
		c0.52-0.21,1.16-0.31,1.92-0.31c-0.23,0.07-0.54,0.35-0.93,0.85c-0.39,0.5-0.8,1.11-1.23,1.85c-0.43,0.74-0.83,1.53-1.19,2.37
		c-0.37,0.84-0.68,1.66-0.92,2.44c-0.24,0.78-0.36,1.45-0.36,2.01c0,0.37,0.07,0.68,0.23,0.92c0.15,0.24,0.38,0.36,0.68,0.36
		c0.28,0,0.6-0.12,0.97-0.35c0.37-0.23,0.7-0.5,1-0.8c0.53-0.58,1.02-1.21,1.45-1.9c0.44-0.69,0.88-1.43,1.32-2.22
		c0.07-0.09,0.13-0.14,0.17-0.14c0.09,0,0.14,0.07,0.14,0.21c0,0.12-0.02,0.21-0.07,0.28c-0.42,0.76-0.85,1.52-1.32,2.28
		c-0.46,0.76-1.03,1.48-1.7,2.15c-0.37,0.37-0.8,0.68-1.3,0.92c-0.5,0.24-0.99,0.32-1.47,0.23c-0.65-0.12-1.11-0.37-1.38-0.78
		c-0.28-0.4-0.42-0.89-0.42-1.47c0-0.46,0.07-0.95,0.21-1.45c-0.28,0.44-0.57,0.88-0.88,1.32c-0.31,0.44-0.66,0.85-1.06,1.25
		c-0.32,0.32-0.71,0.59-1.16,0.81C61.48,27.76,61.02,27.87,60.56,27.87z"/>
	<path class="st0" d="M75.27,27.93c-1.34,0-2.28-0.35-2.84-1.04c-0.28-0.3-0.47-0.66-0.59-1.07c-0.12-0.42-0.17-0.84-0.17-1.28
		c0-0.55,0.07-1.11,0.21-1.68c0.14-0.57,0.31-1.09,0.52-1.58c0.32-0.76,0.75-1.53,1.28-2.3c0.53-0.77,1.17-1.42,1.92-1.96
		c0.75-0.53,1.58-0.8,2.48-0.8c0.6,0,1.07,0.15,1.42,0.45c0.35,0.3,0.52,0.76,0.52,1.38c0,0.72-0.22,1.44-0.66,2.16
		c-0.44,0.73-0.99,1.33-1.66,1.82c-0.67,0.48-1.36,0.73-2.08,0.73c-0.65,0-1.21-0.23-1.7-0.69c-0.14,0.37-0.25,0.78-0.35,1.23
		c-0.09,0.45-0.14,0.91-0.14,1.37c0,0.72,0.14,1.34,0.43,1.87c0.29,0.53,0.81,0.8,1.58,0.8c0.55,0,1.09-0.14,1.61-0.43
		c0.52-0.29,0.99-0.64,1.4-1.06c0.46-0.48,0.9-1,1.32-1.56s0.82-1.2,1.21-1.94c0.05-0.07,0.08-0.1,0.1-0.1
		c0.09,0,0.14,0.1,0.14,0.31c0,0.14-0.05,0.29-0.14,0.45c-0.35,0.62-0.75,1.25-1.21,1.89c-0.46,0.64-0.93,1.18-1.42,1.64
		c-0.44,0.42-0.91,0.75-1.42,1C76.53,27.81,75.94,27.93,75.27,27.93z M74.09,21.56c0.16,0.23,0.35,0.4,0.57,0.5
		c0.22,0.1,0.44,0.16,0.67,0.16c0.55,0,1.13-0.21,1.73-0.64c0.6-0.43,1.08-0.93,1.45-1.51c0.16-0.25,0.31-0.59,0.43-1
		c0.13-0.42,0.19-0.81,0.19-1.18c0-0.32-0.06-0.61-0.19-0.85c-0.13-0.24-0.38-0.36-0.74-0.36c-0.42,0-0.91,0.25-1.47,0.76
		c-0.57,0.51-1.1,1.17-1.61,1.97c-0.16,0.28-0.34,0.6-0.54,0.97C74.4,20.76,74.23,21.15,74.09,21.56z"/>
	<path class="st0" d="M87.73,27.03c-0.39,0.32-0.78,0.56-1.16,0.71c-0.38,0.15-0.73,0.23-1.06,0.23c-0.58,0-1.06-0.2-1.44-0.61
		c-0.38-0.4-0.57-0.94-0.57-1.61c0-0.39,0.09-0.87,0.28-1.42c0.3-0.83,0.75-1.63,1.35-2.39s1.18-1.53,1.73-2.32
		c0.35-0.46,0.52-0.91,0.52-1.35c0-0.23-0.06-0.43-0.19-0.59c-0.13-0.16-0.35-0.25-0.68-0.28c-0.18-0.05-0.39-0.07-0.62-0.07
		c-0.23,0-0.46,0-0.69,0h-0.97c-0.14,0-0.27,0-0.38,0c-0.12,0-0.22-0.01-0.31-0.03c-0.09,0.58-0.28,1.22-0.57,1.94
		c-0.29,0.72-0.62,1.43-0.99,2.15c-0.37,0.72-0.73,1.36-1.07,1.94c-0.09,0.14-0.17,0.21-0.24,0.21c-0.07,0-0.1-0.07-0.1-0.21
		c0-0.16,0.03-0.29,0.1-0.38c0.48-0.95,0.95-1.87,1.4-2.79c0.45-0.91,0.76-1.86,0.92-2.86c-0.53-0.3-0.89-0.82-1.07-1.56
		c-0.02-0.12-0.04-0.23-0.05-0.33c-0.01-0.1-0.02-0.2-0.02-0.29c0-0.42,0.09-0.77,0.26-1.06c0.17-0.29,0.37-0.43,0.61-0.43
		c0.32,0,0.59,0.31,0.8,0.93c0.05,0.16,0.08,0.34,0.1,0.54c0.02,0.2,0.03,0.39,0.03,0.57c0,0.21-0.01,0.4-0.02,0.57
		c-0.01,0.17-0.03,0.32-0.05,0.43c0.16,0.05,0.37,0.08,0.64,0.1c0.27,0.02,0.56,0.03,0.88,0.03c0.48,0,0.99-0.02,1.52-0.05
		c0.53-0.03,0.98-0.05,1.35-0.05c0.44,0,0.74,0.09,0.9,0.28c0.16,0.18,0.24,0.42,0.24,0.69c0,0.35-0.09,0.72-0.26,1.12
		c-0.17,0.4-0.34,0.74-0.5,1.02c-0.3,0.55-0.58,1.04-0.85,1.47c-0.27,0.43-0.56,0.88-0.88,1.37c-0.48,0.74-0.84,1.41-1.06,2.03
		c-0.22,0.61-0.33,1.13-0.33,1.54c0,0.72,0.26,1.07,0.8,1.07c0.44,0,1-0.31,1.7-0.93c0.44-0.39,0.85-0.86,1.23-1.4
		c0.38-0.54,0.73-1.1,1.04-1.66c0.31-0.57,0.57-1.03,0.78-1.4c0.05-0.07,0.09-0.1,0.14-0.1c0.09,0,0.14,0.09,0.14,0.28
		c0,0.14-0.03,0.27-0.1,0.38c-0.39,0.72-0.84,1.5-1.35,2.35C89.09,25.67,88.47,26.41,87.73,27.03z"/>
	<path class="st0" d="M90.43,37.49c-0.16,0.02-0.31,0.04-0.45,0.05c-0.14,0.01-0.28,0.02-0.42,0.02c-0.79,0-1.38-0.21-1.78-0.62
		c-0.4-0.42-0.61-0.91-0.61-1.49c0-0.48,0.14-0.99,0.43-1.51c0.29-0.52,0.72-0.96,1.3-1.33c1.13-0.74,2.42-1.41,3.86-2.03
		c1.44-0.61,2.86-1.31,4.24-2.09c0.07-0.18,0.14-0.39,0.23-0.61c0.08-0.22,0.14-0.44,0.19-0.68c0.07-0.32,0.1-0.61,0.1-0.87
		c0-0.55-0.14-0.96-0.43-1.21c-0.29-0.25-0.67-0.38-1.16-0.38c-0.53,0-1.13,0.14-1.8,0.42c-0.19,0.07-0.39,0.15-0.62,0.24
		c-0.23,0.09-0.47,0.2-0.73,0.31c-0.23,0.46-0.57,0.88-1.02,1.25c-0.45,0.37-0.83,0.58-1.12,0.62c-0.07,0.02-0.17,0.03-0.31,0.03
		c-0.44,0-0.66-0.2-0.66-0.59c0-0.39,0.21-0.7,0.62-0.93c0.62-0.37,1.22-0.76,1.78-1.18c0.57-0.42,1.15-0.92,1.77-1.51
		c0.61-0.59,1.31-1.32,2.09-2.2c0.49-0.55,0.99-1.09,1.51-1.61c0.52-0.52,1.04-1.02,1.58-1.51c-0.16-0.05-0.42-0.09-0.76-0.12
		c-0.35-0.03-0.7-0.07-1.06-0.12c-0.36-0.05-0.64-0.08-0.85-0.1c-0.14-0.02-0.27-0.03-0.4-0.03c-0.13,0-0.25,0-0.36,0
		c-0.51,0-0.98,0.09-1.4,0.26C93.76,18.15,93.36,18.5,93,19c-0.3,0.42-0.64,0.96-1.02,1.64c-0.38,0.68-0.86,1.53-1.44,2.54
		c-0.07,0.14-0.14,0.21-0.21,0.21c-0.09,0-0.14-0.08-0.14-0.24c0-0.12,0.05-0.25,0.14-0.42c0.46-0.78,0.83-1.48,1.11-2.08
		c0.28-0.6,0.62-1.26,1.04-1.97c0.32-0.58,0.65-1.04,0.99-1.4c0.33-0.36,0.78-0.61,1.33-0.74c0.18-0.05,0.37-0.08,0.57-0.1
		c0.2-0.02,0.4-0.03,0.61-0.03c0.46,0,0.92,0.02,1.37,0.07c0.45,0.05,0.86,0.07,1.23,0.07c0.18,0,0.48-0.01,0.88-0.02
		c0.4-0.01,0.8-0.03,1.19-0.07c0.39-0.03,0.66-0.09,0.8-0.16c0.18,0.07,0.28,0.23,0.28,0.48c0,0.3-0.15,0.63-0.45,0.99
		c-0.3,0.36-0.75,0.5-1.35,0.43c-0.58,0.37-1.21,0.9-1.9,1.59c-0.69,0.69-1.28,1.29-1.77,1.8c-0.18,0.21-0.47,0.5-0.87,0.87
		c-0.39,0.37-0.8,0.77-1.23,1.21c-0.43,0.44-0.81,0.87-1.16,1.28c0,0.02-0.01,0.05-0.02,0.07c-0.01,0.02-0.02,0.06-0.02,0.1
		c0.44-0.28,0.95-0.51,1.52-0.69c0.46-0.14,0.87-0.24,1.23-0.29c0.36-0.06,0.69-0.09,0.99-0.09c0.78,0,1.33,0.2,1.64,0.59
		c0.31,0.39,0.47,0.89,0.47,1.49c0,0.32-0.03,0.68-0.1,1.07c0.76-0.69,1.48-1.46,2.15-2.3c0.67-0.84,1.22-1.66,1.66-2.44
		c0.21-0.32,0.39-0.48,0.55-0.48c0.05,0,0.07,0.03,0.07,0.1c0,0.09-0.05,0.22-0.14,0.38c-0.42,0.74-0.87,1.46-1.35,2.16
		c-0.49,0.7-1.02,1.36-1.59,1.96c-0.42,0.42-0.91,0.85-1.49,1.32c-0.07,0.25-0.15,0.52-0.24,0.8c-0.09,0.28-0.2,0.55-0.31,0.83
		c-0.53,1.32-1.17,2.54-1.92,3.67c-0.75,1.13-1.59,2.07-2.53,2.82C92.63,36.77,91.59,37.26,90.43,37.49z M90.23,36.9
		c1.18-0.35,2.16-0.94,2.96-1.78c0.8-0.84,1.48-1.8,2.06-2.87c0.58-1.07,1.11-2.12,1.59-3.13c-0.55,0.37-1.3,0.77-2.23,1.19
		c-0.93,0.43-1.89,0.87-2.86,1.32c-0.97,0.45-1.81,0.92-2.53,1.4c-0.48,0.32-0.84,0.71-1.07,1.16c-0.23,0.45-0.35,0.88-0.35,1.3
		c0,0.44,0.13,0.81,0.4,1.11c0.26,0.3,0.65,0.45,1.16,0.45c0.12,0,0.25-0.01,0.4-0.03C89.91,36.98,90.06,36.95,90.23,36.9z"/>
	<path class="st0" d="M105.42,28.35c-0.88,0-1.63-0.28-2.27-0.85c-0.64-0.57-0.95-1.44-0.95-2.61c0-0.74,0.13-1.51,0.4-2.3
		c0.26-0.8,0.56-1.51,0.88-2.13c0.6-1.13,1.36-2.12,2.27-2.96c0.91-0.84,2-1.26,3.27-1.26c1.22,0,2.08,0.33,2.56,1
		c0.48,0.67,0.73,1.49,0.73,2.46c0,0.39-0.03,0.8-0.1,1.21c-0.18,1.13-0.57,2.23-1.14,3.29c0.16,0.23,0.37,0.42,0.64,0.57
		c0.27,0.15,0.56,0.22,0.88,0.22c0.55,0,1.03-0.15,1.42-0.45c0.39-0.3,0.73-0.68,1.02-1.13c0.29-0.45,0.54-0.87,0.74-1.26
		c0.14-0.25,0.27-0.38,0.38-0.38c0.07,0,0.1,0.05,0.1,0.14c0,0.09-0.07,0.3-0.21,0.62c-0.39,0.78-0.85,1.47-1.38,2.04
		c-0.53,0.58-1.22,0.87-2.08,0.87c-0.79,0-1.38-0.28-1.8-0.83c-0.65,1.06-1.43,1.95-2.35,2.67
		C107.51,27.99,106.51,28.35,105.42,28.35z M105.49,27.93c1.13,0,2.25-0.55,3.36-1.66c0.32-0.32,0.62-0.66,0.88-1.02
		c0.27-0.36,0.5-0.72,0.71-1.09c-0.3-0.35-0.51-0.72-0.64-1.12c-0.13-0.4-0.19-0.79-0.19-1.16c0-0.58,0.1-1.09,0.31-1.54
		c0.21-0.45,0.5-0.68,0.86-0.68c0.18,0,0.36,0.09,0.54,0.28c0.17,0.18,0.28,0.47,0.33,0.87c0.07-0.32,0.1-0.67,0.1-1.04
		c0-0.88-0.16-1.58-0.49-2.09s-0.87-0.78-1.63-0.78c-0.46,0-0.93,0.18-1.42,0.54c-0.49,0.36-0.94,0.79-1.37,1.3
		c-0.43,0.51-0.8,1.03-1.12,1.56c-0.32,0.53-0.57,0.97-0.73,1.32c-0.39,0.85-0.67,1.62-0.85,2.28c-0.17,0.67-0.26,1.26-0.26,1.77
		c0,0.74,0.16,1.3,0.47,1.7C104.68,27.74,105.05,27.93,105.49,27.93z"/>
	<path class="st0" d="M116.64,27.93c-0.49,0-0.93-0.1-1.33-0.29c-0.4-0.2-0.73-0.54-0.99-1.02c-0.18-0.42-0.28-0.87-0.28-1.35
		c0-0.51,0.09-0.98,0.28-1.42c0.18-0.39,0.39-0.74,0.62-1.04c0.23-0.3,0.49-0.47,0.76-0.52c0.21-0.46,0.5-1,0.87-1.61
		c0.37-0.61,0.79-1.23,1.26-1.85c0.47-0.62,0.95-1.18,1.44-1.66c0.62-0.62,1.29-1.12,2.01-1.49c0.71-0.37,1.43-0.55,2.15-0.55
		c0.55,0,1.06,0.12,1.52,0.35c0.39,0.18,0.59,0.45,0.59,0.8c0,0.16-0.05,0.3-0.16,0.42c-0.1,0.12-0.21,0.17-0.33,0.17
		c-0.14,0-0.28-0.08-0.42-0.24c-0.25-0.32-0.68-0.57-1.28-0.73c-0.09-0.02-0.19-0.04-0.28-0.05c-0.09-0.01-0.18-0.02-0.28-0.02
		c-0.62,0-1.09,0.21-1.38,0.62c-0.3,0.42-0.45,0.92-0.45,1.52c0,0.58,0.13,1.24,0.38,1.99c0.25,0.75,0.38,1.59,0.38,2.51
		c0,0.74-0.15,1.49-0.45,2.25c-0.16,0.37-0.35,0.73-0.57,1.07c-0.22,0.35-0.49,0.66-0.81,0.93l-0.49,0.35
		c0.07,0.02,0.14,0.04,0.21,0.05c0.07,0.01,0.14,0.02,0.21,0.02c0.39,0,0.83-0.12,1.32-0.36s0.91-0.55,1.28-0.92
		c0.55-0.53,1.03-1.1,1.44-1.7c0.4-0.6,0.78-1.22,1.13-1.87c0.02-0.09,0.08-0.14,0.17-0.14c0.12,0,0.17,0.09,0.17,0.28
		c0,0.09-0.03,0.2-0.1,0.31c-0.35,0.65-0.77,1.32-1.26,2.03c-0.5,0.7-1.01,1.3-1.54,1.78c-0.42,0.37-0.86,0.64-1.33,0.81
		c-0.47,0.17-0.87,0.26-1.19,0.26c-0.23,0-0.42-0.02-0.55-0.07c-0.14-0.05-0.27-0.12-0.38-0.21c-0.32,0.16-0.69,0.3-1.09,0.42
		C117.46,27.88,117.05,27.93,116.64,27.93z M117.95,27.03c0.46-0.32,0.82-0.74,1.09-1.25c0.27-0.51,0.47-1.05,0.61-1.63
		c0.18-0.69,0.29-1.37,0.33-2.03c0.03-0.66,0.05-1.24,0.05-1.75v-1.07c0-0.48,0.06-0.99,0.19-1.51c0.13-0.52,0.31-0.91,0.54-1.16
		c-0.3,0.07-0.67,0.33-1.11,0.78s-0.88,0.98-1.32,1.58c-0.44,0.6-0.84,1.2-1.19,1.8c-0.36,0.6-0.63,1.1-0.81,1.49
		c0.44-0.02,0.74,0.1,0.9,0.36c0.16,0.27,0.21,0.46,0.14,0.57c-0.18-0.05-0.31-0.07-0.38-0.07c-0.35,0-0.67,0.13-0.97,0.38
		c-0.3,0.23-0.55,0.57-0.76,1.02c-0.21,0.45-0.31,0.88-0.31,1.3c0,0.55,0.16,0.96,0.49,1.21c0.32,0.25,0.7,0.38,1.14,0.38
		C117.08,27.45,117.54,27.31,117.95,27.03z"/>
	<path class="st0" d="M134.05,30.81c-0.23,0-0.59-0.03-1.09-0.1s-0.95-0.22-1.37-0.45c-0.42-0.23-0.62-0.59-0.62-1.07
		c0-0.3,0.07-0.53,0.21-0.69c0.09-0.12,0.18-0.17,0.28-0.17c0.09,0,0.12,0.06,0.07,0.17c-0.07,0.35,0.06,0.68,0.38,0.99
		c0.32,0.31,0.65,0.51,0.97,0.61c0.46,0.12,0.87,0.17,1.21,0.17c1.02,0,1.93-0.29,2.75-0.87c0.82-0.58,1.55-1.25,2.2-2.01
		c-0.88-0.53-1.64-1.17-2.3-1.92c-0.66-0.75-0.99-1.59-0.99-2.51c0-0.37,0.05-0.7,0.14-1c0.23-0.78,0.73-1.41,1.49-1.87
		c0.23-0.14,0.48-0.24,0.74-0.29c0.27-0.06,0.54-0.09,0.81-0.09c0.9,0,1.53,0.21,1.9,0.62v0.03c0,0.05-0.04,0.1-0.12,0.17
		c-0.08,0.07-0.14,0.08-0.19,0.03c-0.16-0.23-0.45-0.35-0.87-0.35c-0.51,0-1,0.17-1.49,0.52c-0.46,0.35-0.76,0.77-0.9,1.28
		c-0.14,0.44-0.21,0.88-0.21,1.32c0,0.78,0.22,1.47,0.68,2.06c0.45,0.59,1,1.1,1.64,1.54c0.18-0.23,0.35-0.46,0.5-0.69
		c0.15-0.23,0.31-0.46,0.47-0.69c0.69-1.06,1.37-2.27,2.04-3.63c0.67-1.36,1.36-2.76,2.08-4.21c0.72-1.44,1.47-2.84,2.27-4.21
		c0.8-1.36,1.67-2.58,2.61-3.65s1.98-1.9,3.12-2.48c0.74-0.39,1.44-0.59,2.11-0.59c0.37,0,0.7,0.05,1,0.14
		c0.09,0.02,0.12,0.08,0.09,0.17c-0.03,0.09-0.1,0.13-0.19,0.1c-0.09-0.05-0.19-0.07-0.29-0.07c-0.1,0-0.21,0-0.33,0
		c-1.2,0-2.46,0.77-3.77,2.32c-1.02,1.2-1.89,2.48-2.63,3.83c-0.74,1.35-1.42,2.74-2.04,4.15s-1.26,2.82-1.92,4.21
		c-0.66,1.38-1.44,2.71-2.34,3.98c-0.23,0.35-0.48,0.68-0.74,1c-0.27,0.32-0.54,0.64-0.81,0.93c0.32,0.14,0.66,0.25,1.02,0.35
		c0.36,0.09,0.69,0.17,0.99,0.24c1.04,0.21,2.1,0.31,3.18,0.31c1.5,0,2.96-0.17,4.38-0.5c1.42-0.33,2.67-0.79,3.76-1.37
		c1.48-0.78,2.79-1.87,3.95-3.25c1.15-1.38,2.07-2.92,2.75-4.6c0.68-1.68,1.02-3.36,1.02-5.02s-0.39-3.22-1.18-4.69
		c-0.78-1.47-2.09-2.66-3.91-3.58c-1.13-0.58-2.38-1-3.76-1.26c-1.37-0.26-2.75-0.4-4.14-0.4c-1.96,0-3.86,0.32-5.69,0.95
		c-1.83,0.64-3.33,1.49-4.48,2.58c-0.6,0.58-1.14,1.35-1.61,2.32s-0.71,1.93-0.71,2.87c0,0.21,0.01,0.42,0.03,0.62
		c0.02,0.21,0.07,0.42,0.14,0.62c0.21,0.65,0.61,1.14,1.19,1.47c0.59,0.33,1.26,0.5,2.03,0.5c0.58,0,1.18-0.1,1.8-0.31
		c0.02,0,0.04-0.01,0.05-0.02c0.01-0.01,0.03-0.02,0.05-0.02c0.05,0,0.07,0.02,0.07,0.07c0,0.12-0.07,0.2-0.21,0.24
		c-0.32,0.09-0.66,0.17-1.02,0.24c-0.36,0.07-0.71,0.1-1.06,0.1c-0.74,0-1.45-0.13-2.15-0.4c-0.69-0.27-1.25-0.69-1.68-1.26
		c-0.43-0.58-0.64-1.32-0.64-2.22c0-0.71,0.1-1.38,0.31-2.01c0.21-0.62,0.5-1.21,0.87-1.77c0.76-1.13,1.84-2.07,3.24-2.82
		c1.4-0.75,2.94-1.32,4.64-1.7c1.7-0.38,3.38-0.57,5.04-0.57c1.41,0,2.82,0.13,4.22,0.4c1.41,0.27,2.75,0.66,4.02,1.19
		c2.31,0.99,3.98,2.33,5,4c1.03,1.67,1.54,3.46,1.54,5.35c0,1.75-0.39,3.5-1.16,5.24c-0.77,1.74-1.85,3.32-3.22,4.74
		c-1.37,1.42-2.97,2.54-4.79,3.38c-1.13,0.51-2.36,0.89-3.69,1.14c-1.33,0.25-2.67,0.38-4.03,0.38c-0.79,0-1.56-0.04-2.32-0.12
		c-0.76-0.08-1.51-0.2-2.25-0.36c-0.3-0.07-0.62-0.16-0.97-0.26c-0.35-0.1-0.69-0.24-1.04-0.4c-0.42,0.37-0.85,0.73-1.3,1.09
		c-0.45,0.36-0.93,0.66-1.44,0.92c-0.53,0.25-1.08,0.46-1.64,0.61C135.23,30.73,134.65,30.81,134.05,30.81z"/>
	<path class="st0" d="M167.22,28.35c-0.88,0-1.63-0.28-2.27-0.85c-0.64-0.57-0.95-1.44-0.95-2.61c0-0.74,0.13-1.51,0.4-2.3
		c0.27-0.8,0.56-1.51,0.88-2.13c0.6-1.13,1.36-2.12,2.27-2.96c0.91-0.84,2-1.26,3.27-1.26c1.22,0,2.08,0.33,2.56,1
		c0.49,0.67,0.73,1.49,0.73,2.46c0,0.39-0.03,0.8-0.1,1.21c-0.18,1.13-0.57,2.23-1.14,3.29c0.16,0.23,0.37,0.42,0.64,0.57
		c0.27,0.15,0.56,0.22,0.88,0.22c0.55,0,1.03-0.15,1.42-0.45c0.39-0.3,0.73-0.68,1.02-1.13c0.29-0.45,0.54-0.87,0.74-1.26
		c0.14-0.25,0.27-0.38,0.38-0.38c0.07,0,0.1,0.05,0.1,0.14c0,0.09-0.07,0.3-0.21,0.62c-0.39,0.78-0.85,1.47-1.38,2.04
		c-0.53,0.58-1.22,0.87-2.08,0.87c-0.79,0-1.39-0.28-1.8-0.83c-0.65,1.06-1.43,1.95-2.35,2.67
		C169.31,27.99,168.3,28.35,167.22,28.35z M167.29,27.93c1.13,0,2.25-0.55,3.36-1.66c0.32-0.32,0.62-0.66,0.88-1.02
		c0.27-0.36,0.5-0.72,0.71-1.09c-0.3-0.35-0.51-0.72-0.64-1.12c-0.13-0.4-0.19-0.79-0.19-1.16c0-0.58,0.1-1.09,0.31-1.54
		s0.5-0.68,0.87-0.68c0.18,0,0.36,0.09,0.54,0.28c0.17,0.18,0.28,0.47,0.33,0.87c0.07-0.32,0.1-0.67,0.1-1.04
		c0-0.88-0.16-1.58-0.48-2.09c-0.32-0.52-0.87-0.78-1.63-0.78c-0.46,0-0.93,0.18-1.42,0.54c-0.48,0.36-0.94,0.79-1.37,1.3
		c-0.43,0.51-0.8,1.03-1.12,1.56c-0.32,0.53-0.57,0.97-0.73,1.32c-0.39,0.85-0.67,1.62-0.85,2.28c-0.17,0.67-0.26,1.26-0.26,1.77
		c0,0.74,0.16,1.3,0.47,1.7C166.47,27.74,166.85,27.93,167.29,27.93z"/>
	<path class="st0" d="M183.87,27.87c-0.67,0-1.19-0.21-1.58-0.62c-0.38-0.42-0.57-0.93-0.57-1.56c0-0.3,0.06-0.65,0.17-1.04
		c0.32-1.02,0.84-2.03,1.54-3.03c0.7-1,1.29-2,1.75-2.99c0.16-0.32,0.24-0.61,0.24-0.87c0-0.25-0.08-0.44-0.23-0.57
		c-0.15-0.13-0.33-0.19-0.54-0.19c-0.3,0-0.67,0.12-1.12,0.36c-0.45,0.24-0.96,0.7-1.54,1.37c-0.35,0.42-0.74,0.92-1.18,1.52
		c-0.44,0.6-0.8,1.14-1.07,1.63c-0.46,0.78-0.88,1.58-1.25,2.37c-0.37,0.8-0.69,1.53-0.97,2.2c-0.23,0.53-0.51,0.87-0.83,1.02
		c-0.32,0.15-0.63,0.21-0.93,0.19c-0.3-0.02-0.53-0.02-0.69,0c0.65-1.27,1.28-2.61,1.9-4.02c0.62-1.41,1.15-2.82,1.59-4.22
		c0.21-0.65,0.38-1.28,0.52-1.89c0.14-0.61,0.2-1.01,0.17-1.19v-0.07c0-0.18,0.09-0.23,0.28-0.14c0.3,0.16,0.51,0.4,0.62,0.71
		c0.12,0.31,0.17,0.66,0.17,1.06c0,0.44-0.06,0.91-0.17,1.4c-0.12,0.5-0.25,0.94-0.42,1.33c0.3-0.42,0.62-0.84,0.97-1.26
		c0.35-0.43,0.73-0.84,1.14-1.23c0.48-0.48,1-0.91,1.56-1.26c0.55-0.36,1.15-0.54,1.8-0.54c0.62,0,1.08,0.14,1.37,0.42
		c0.29,0.28,0.43,0.65,0.43,1.11c0,0.48-0.14,1.04-0.42,1.66c-0.3,0.72-0.66,1.43-1.09,2.15c-0.43,0.72-0.81,1.41-1.16,2.08
		c-0.07,0.14-0.18,0.35-0.33,0.64c-0.15,0.29-0.28,0.61-0.4,0.95c-0.05,0.16-0.09,0.33-0.14,0.5c-0.05,0.17-0.07,0.35-0.07,0.54
		c0,0.23,0.05,0.44,0.16,0.64c0.1,0.2,0.3,0.29,0.61,0.29c0.39,0,0.77-0.13,1.12-0.4c0.36-0.26,0.66-0.55,0.92-0.85
		c0.53-0.58,1.02-1.22,1.47-1.92c0.45-0.7,0.89-1.45,1.33-2.23c0.07-0.09,0.12-0.14,0.14-0.14c0.09,0,0.14,0.1,0.14,0.31
		c0,0.14-0.02,0.24-0.07,0.31c-0.42,0.76-0.85,1.51-1.32,2.23c-0.46,0.73-1.03,1.43-1.7,2.09c-0.3,0.3-0.65,0.57-1.04,0.8
		C184.79,27.75,184.35,27.87,183.87,27.87z M183.99,13.51c-0.57,0-1.07-0.11-1.51-0.33c-0.44-0.22-0.9-0.33-1.38-0.33
		c-0.38,0-0.69,0.07-0.9,0.21c-0.22,0.14-0.35,0.28-0.4,0.42h-0.23c0-0.4,0.16-0.76,0.48-1.07c0.32-0.31,0.67-0.47,1.05-0.47
		c0.49,0,0.95,0.11,1.38,0.32c0.43,0.21,0.94,0.32,1.51,0.32c0.47,0,0.8-0.11,0.99-0.32c0.19-0.21,0.31-0.36,0.34-0.44h0.2
		c0,0.42-0.14,0.81-0.41,1.16C184.83,13.34,184.46,13.51,183.99,13.51z"/>
	<path class="st0" d="M196.16,27.9c-0.74,0-1.25-0.24-1.52-0.71s-0.42-1-0.42-1.58c0-0.12,0.02-0.32,0.05-0.61
		c0.03-0.29,0.07-0.56,0.12-0.81c-0.32,0.44-0.71,0.92-1.16,1.45c-0.45,0.53-0.91,0.98-1.37,1.35c-0.74,0.6-1.41,0.9-2.01,0.9
		c-0.58,0-1.02-0.24-1.33-0.73c-0.31-0.48-0.47-1.1-0.47-1.83c0-0.95,0.21-1.9,0.62-2.87c0.42-0.97,0.96-1.89,1.64-2.75
		c0.68-0.87,1.44-1.61,2.27-2.23c0.48-0.35,1.08-0.63,1.78-0.85c0.7-0.22,1.41-0.33,2.13-0.33c0.81,0,1.52,0.12,2.13,0.36
		c0.61,0.24,1.03,0.58,1.26,1.02c-0.48,0.62-0.98,1.39-1.49,2.3c-0.51,0.91-0.95,1.74-1.32,2.48c-0.25,0.51-0.53,1.14-0.83,1.89
		c-0.3,0.75-0.45,1.39-0.45,1.92c0,0.23,0.06,0.46,0.17,0.69c0.12,0.23,0.33,0.35,0.66,0.35c0.37,0,0.73-0.14,1.07-0.42
		c0.35-0.28,0.63-0.55,0.86-0.83c0.53-0.58,1.02-1.21,1.45-1.9c0.44-0.69,0.88-1.43,1.32-2.22c0.07-0.09,0.14-0.14,0.21-0.14
		c0.09,0,0.14,0.07,0.14,0.21c0,0.12-0.02,0.21-0.07,0.28c-0.39,0.76-0.83,1.52-1.32,2.28c-0.48,0.76-1.06,1.48-1.73,2.15
		c-0.32,0.32-0.7,0.6-1.14,0.83C197,27.78,196.57,27.9,196.16,27.9z M190.62,26.83c0.44,0,0.92-0.24,1.44-0.71
		c0.52-0.47,1.03-1.05,1.52-1.73c0.5-0.68,0.95-1.34,1.35-1.97c0.4-0.63,0.72-1.12,0.95-1.47c0.48-0.76,0.93-1.4,1.35-1.9
		c0.42-0.51,1.06-0.9,1.94-1.18c0.05,0,0.09-0.01,0.12-0.02c0.03-0.01,0.07-0.02,0.12-0.02c-0.21-0.32-0.55-0.57-1.04-0.73
		c-0.49-0.16-0.96-0.24-1.42-0.24c-0.72,0-1.41,0.2-2.08,0.59c-0.67,0.39-1.28,0.89-1.83,1.49c-0.53,0.62-1.05,1.3-1.56,2.04
		c-0.51,0.74-0.92,1.49-1.23,2.25c-0.31,0.76-0.47,1.49-0.47,2.18c0,0.37,0.06,0.7,0.19,0.99
		C190.11,26.68,190.32,26.83,190.62,26.83z"/>
	<path class="st0" d="M213.95,24.26c-0.02,0.07-0.08,0.1-0.17,0.1c-0.21,0-0.28-0.09-0.21-0.28c0.53-0.99,1.34-2.02,2.42-3.08
		c1.09-1.06,2.4-1.99,3.95-2.79c1.55-0.8,3.27-1.27,5.16-1.44c0.16-0.02,0.31-0.03,0.45-0.03s0.29,0,0.45,0
		c1.5,0,2.58,0.33,3.25,0.99c0.67,0.66,0.96,1.48,0.86,2.48c-0.12,1.38-0.61,2.65-1.47,3.81c-0.87,1.15-1.97,2.15-3.32,2.98
		c-1.35,0.83-2.82,1.47-4.41,1.92c-1.59,0.45-3.17,0.67-4.74,0.67c-1.66,0-3.2-0.28-4.62-0.85c-1.42-0.57-2.56-1.45-3.43-2.67
		c-0.87-1.21-1.3-2.8-1.3-4.76c0-0.18,0-0.37,0-0.55c0-0.18,0.01-0.37,0.03-0.55c0.14-1.48,0.56-3,1.26-4.57
		c0.7-1.57,1.66-3.07,2.87-4.5c1.21-1.43,2.64-2.71,4.29-3.84c1.65-1.13,3.48-2.03,5.49-2.7c2.01-0.67,4.17-1,6.47-1
		c1.52,0,2.65,0.28,3.38,0.83c0.73,0.55,1.09,1.2,1.09,1.94c0,0.58-0.22,1.17-0.66,1.78c-0.44,0.61-1.07,1.15-1.9,1.61
		c-0.92,0.51-1.93,0.91-3.03,1.19c-1.1,0.29-2.15,0.5-3.17,0.62c-1.02,0.13-1.86,0.23-2.53,0.29h-0.03c-0.07,0-0.1-0.03-0.1-0.1
		c0-0.12,0.08-0.18,0.24-0.21c1.52-0.16,3.01-0.47,4.47-0.92c1.45-0.45,2.7-0.99,3.74-1.61c0.58-0.35,1.04-0.77,1.38-1.28
		c0.35-0.51,0.52-1.02,0.52-1.52c0-0.58-0.28-1.08-0.85-1.51c-0.57-0.43-1.51-0.64-2.82-0.64c-2.01,0-3.88,0.33-5.63,0.99
		c-1.74,0.66-3.32,1.55-4.74,2.67c-1.42,1.12-2.65,2.39-3.7,3.81c-1.05,1.42-1.88,2.9-2.49,4.43c-0.61,1.54-0.99,3.03-1.13,4.48
		c-0.02,0.23-0.04,0.45-0.05,0.66c-0.01,0.21-0.02,0.42-0.02,0.62c0,1.78,0.33,3.22,1,4.33c0.67,1.11,1.56,1.91,2.67,2.41
		c1.11,0.5,2.32,0.74,3.63,0.74c1.36,0,2.74-0.23,4.12-0.69c1.38-0.46,2.68-1.1,3.88-1.92c1.2-0.82,2.19-1.78,2.96-2.89
		c0.77-1.11,1.21-2.3,1.3-3.57c0.09-0.95-0.16-1.7-0.74-2.27c-0.59-0.57-1.56-0.79-2.92-0.68c-1.82,0.16-3.49,0.63-4.99,1.4
		c-1.5,0.77-2.78,1.67-3.83,2.68C215.24,22.3,214.46,23.3,213.95,24.26z"/>
	<path class="st0" d="M238.32,27.9c-0.74,0-1.25-0.24-1.52-0.71s-0.42-1-0.42-1.58c0-0.12,0.02-0.32,0.05-0.61
		c0.03-0.29,0.07-0.56,0.12-0.81c-0.32,0.44-0.71,0.92-1.16,1.45c-0.45,0.53-0.91,0.98-1.37,1.35c-0.74,0.6-1.41,0.9-2.01,0.9
		c-0.58,0-1.02-0.24-1.33-0.73c-0.31-0.48-0.47-1.1-0.47-1.83c0-0.95,0.21-1.9,0.62-2.87c0.42-0.97,0.96-1.89,1.64-2.75
		c0.68-0.87,1.44-1.61,2.27-2.23c0.49-0.35,1.08-0.63,1.78-0.85c0.7-0.22,1.41-0.33,2.13-0.33c0.81,0,1.52,0.12,2.13,0.36
		c0.61,0.24,1.03,0.58,1.26,1.02c-0.48,0.62-0.98,1.39-1.49,2.3c-0.51,0.91-0.95,1.74-1.32,2.48c-0.25,0.51-0.53,1.14-0.83,1.89
		c-0.3,0.75-0.45,1.39-0.45,1.92c0,0.23,0.06,0.46,0.17,0.69c0.12,0.23,0.33,0.35,0.66,0.35c0.37,0,0.73-0.14,1.07-0.42
		c0.35-0.28,0.63-0.55,0.87-0.83c0.53-0.58,1.02-1.21,1.45-1.9c0.44-0.69,0.88-1.43,1.32-2.22c0.07-0.09,0.14-0.14,0.21-0.14
		c0.09,0,0.14,0.07,0.14,0.21c0,0.12-0.02,0.21-0.07,0.28c-0.39,0.76-0.83,1.52-1.32,2.28c-0.48,0.76-1.06,1.48-1.73,2.15
		c-0.32,0.32-0.7,0.6-1.14,0.83C239.17,27.78,238.74,27.9,238.32,27.9z M232.78,26.83c0.44,0,0.92-0.24,1.44-0.71
		c0.52-0.47,1.03-1.05,1.52-1.73c0.5-0.68,0.95-1.34,1.35-1.97c0.4-0.63,0.72-1.12,0.95-1.47c0.48-0.76,0.93-1.4,1.35-1.9
		c0.42-0.51,1.06-0.9,1.94-1.18c0.05,0,0.09-0.01,0.12-0.02c0.03-0.01,0.07-0.02,0.12-0.02c-0.21-0.32-0.55-0.57-1.04-0.73
		c-0.48-0.16-0.96-0.24-1.42-0.24c-0.72,0-1.41,0.2-2.08,0.59c-0.67,0.39-1.28,0.89-1.83,1.49c-0.53,0.62-1.05,1.3-1.56,2.04
		c-0.51,0.74-0.92,1.49-1.23,2.25c-0.31,0.76-0.47,1.49-0.47,2.18c0,0.37,0.06,0.7,0.19,0.99
		C232.27,26.68,232.48,26.83,232.78,26.83z"/>
	<path class="st0" d="M244.69,27.9c-0.58,0-1.09-0.17-1.54-0.5c-0.45-0.33-0.68-0.88-0.68-1.64c0-0.81,0.2-1.7,0.59-2.67
		c0.39-0.97,0.76-1.83,1.11-2.6c0.18-0.37,0.43-0.87,0.74-1.51c0.31-0.63,0.65-1.26,1.02-1.89h-1.63c-0.07,0-0.1-0.06-0.1-0.17
		c0-0.09,0.03-0.19,0.1-0.29c0.07-0.1,0.15-0.16,0.24-0.16c0.65,0,1.13-0.06,1.45-0.17c0.32-0.12,0.6-0.28,0.83-0.48
		c0.37-0.32,0.73-0.74,1.09-1.25c0.36-0.51,0.71-0.95,1.06-1.32c0.25-0.32,0.57-0.57,0.95-0.73c0.38-0.16,0.63-0.22,0.74-0.17
		c-0.12,0.16-0.3,0.44-0.55,0.83c-0.25,0.39-0.52,0.82-0.8,1.28c-0.28,0.46-0.53,0.89-0.76,1.28c-0.23,0.39-0.38,0.66-0.45,0.8h2.28
		c0.07,0,0.1,0.02,0.1,0.07c0,0.09-0.05,0.2-0.16,0.31c-0.1,0.12-0.2,0.17-0.29,0.17h-2.25c-0.42,0.72-0.91,1.64-1.47,2.79
		c-0.57,1.14-1.07,2.24-1.51,3.31c-0.09,0.21-0.25,0.62-0.47,1.25c-0.22,0.62-0.33,1.2-0.33,1.73c0,0.35,0.07,0.64,0.23,0.87
		c0.15,0.23,0.41,0.35,0.78,0.35c0.39,0,0.82-0.14,1.28-0.43c0.46-0.29,0.82-0.58,1.07-0.88c0.53-0.58,1.02-1.21,1.45-1.9
		c0.44-0.69,0.88-1.43,1.32-2.22c0.07-0.09,0.14-0.14,0.21-0.14c0.09,0,0.14,0.07,0.14,0.21c0,0.12-0.02,0.21-0.07,0.28
		c-0.42,0.76-0.86,1.52-1.33,2.28c-0.47,0.76-1.04,1.48-1.71,2.15c-0.3,0.3-0.7,0.57-1.21,0.81
		C245.67,27.78,245.18,27.9,244.69,27.9z"/>
	<path class="st0" d="M257.33,27.9c-0.74,0-1.25-0.24-1.52-0.71c-0.28-0.47-0.42-1-0.42-1.58c0-0.12,0.02-0.32,0.05-0.61
		c0.03-0.29,0.07-0.56,0.12-0.81c-0.32,0.44-0.71,0.92-1.16,1.45c-0.45,0.53-0.91,0.98-1.37,1.35c-0.74,0.6-1.41,0.9-2.01,0.9
		c-0.58,0-1.02-0.24-1.33-0.73c-0.31-0.48-0.47-1.1-0.47-1.83c0-0.95,0.21-1.9,0.62-2.87c0.42-0.97,0.96-1.89,1.64-2.75
		c0.68-0.87,1.44-1.61,2.27-2.23c0.49-0.35,1.08-0.63,1.78-0.85c0.7-0.22,1.41-0.33,2.13-0.33c0.81,0,1.52,0.12,2.13,0.36
		c0.61,0.24,1.03,0.58,1.26,1.02c-0.48,0.62-0.98,1.39-1.49,2.3c-0.51,0.91-0.95,1.74-1.32,2.48c-0.25,0.51-0.53,1.14-0.83,1.89
		c-0.3,0.75-0.45,1.39-0.45,1.92c0,0.23,0.06,0.46,0.17,0.69c0.12,0.23,0.33,0.35,0.66,0.35c0.37,0,0.73-0.14,1.07-0.42
		c0.35-0.28,0.63-0.55,0.87-0.83c0.53-0.58,1.02-1.21,1.45-1.9c0.44-0.69,0.88-1.43,1.32-2.22c0.07-0.09,0.14-0.14,0.21-0.14
		c0.09,0,0.14,0.07,0.14,0.21c0,0.12-0.02,0.21-0.07,0.28c-0.39,0.76-0.83,1.52-1.32,2.28c-0.48,0.76-1.06,1.48-1.73,2.15
		c-0.32,0.32-0.7,0.6-1.14,0.83C258.17,27.78,257.74,27.9,257.33,27.9z M251.79,26.83c0.44,0,0.92-0.24,1.44-0.71
		c0.52-0.47,1.03-1.05,1.52-1.73c0.5-0.68,0.95-1.34,1.35-1.97c0.4-0.63,0.72-1.12,0.95-1.47c0.48-0.76,0.93-1.4,1.35-1.9
		c0.42-0.51,1.06-0.9,1.94-1.18c0.05,0,0.09-0.01,0.12-0.02c0.03-0.01,0.07-0.02,0.12-0.02c-0.21-0.32-0.55-0.57-1.04-0.73
		c-0.48-0.16-0.96-0.24-1.42-0.24c-0.72,0-1.41,0.2-2.08,0.59c-0.67,0.39-1.28,0.89-1.83,1.49c-0.53,0.62-1.05,1.3-1.56,2.04
		c-0.51,0.74-0.92,1.49-1.23,2.25c-0.31,0.76-0.47,1.49-0.47,2.18c0,0.37,0.06,0.7,0.19,0.99
		C251.28,26.68,251.49,26.83,251.79,26.83z"/>
</g>
</svg>
